<?xml version="1.0" encoding="utf-8"?>
<!-- Generator: Adobe Illustrator 13.0.0, SVG Export Plug-In . SVG Version: 6.00 Build 14948)  -->
<!DOCTYPE svg PUBLIC "-//W3C//DTD SVG 1.1//EN" "http://www.w3.org/Graphics/SVG/1.1/DTD/svg11.dtd">
<svg version="1.1" id="Layer_1" xmlns="http://www.w3.org/2000/svg" xmlns:xlink="http://www.w3.org/1999/xlink" x="0px" y="0px"
	 width="66.333px" height="60.167px" viewBox="-10.665 169 66.333 60.167" enable-background="new -10.665 169 66.333 60.167"
	 xml:space="preserve">
<rect x="-10.427" y="169" width="66.167" height="60"/>
<path fill="#FFFFFF" d="M2.889,191.252c1.518,0,2.092,0.041,3.156,0.041h0.82c1.804,0,2.132-0.041,4.264-0.205
	c1.066-0.082,2.092-0.164,2.788-0.164c6.52,0,12.014,4.469,12.014,9.799c0,5.494-5.495,9.717-12.628,9.717
	c-1.229,0-1.928-0.041-3.484-0.287v3.158l0.082,3.813c0.041,2.256,0.286,2.625,1.681,2.994c0.492,0.123,1.025,0.244,1.641,0.326
	c0.287,0,0.655,0.041,1.106,0.082v0.615c-2.501-0.082-4.346-0.123-5.576-0.123c-1.229,0-3.074,0.041-5.494,0.123v-0.574l0.738-0.123
	c2.091-0.367,2.337-0.9,2.419-4.838l0.164-10.004l-0.123-9.39c-0.041-2.952-0.901-4.019-3.566-4.387L2.889,191.252L2.889,191.252z
	 M10.146,192.563c-0.327,5.248-0.45,7.791-0.45,10.578c0,1.478,0,3.321,0.041,5.576c1.517,0.451,2.05,0.533,3.279,0.533
	c5.576,0,9.226-3.279,9.226-8.159c0-5.002-4.101-8.979-9.308-8.979C11.95,192.112,11.458,192.194,10.146,192.563z"/>
<path fill="#FFFFFF" d="M15.026,213.639c0.123,0.369,0.245,0.615,0.286,0.82c0.901,2.459,0.983,2.623,1.887,3.359
	c1.64,1.438,5.125,2.463,8.036,2.463c3.854,0,6.478-2.217,6.478-5.494c0-0.861-0.164-1.766-0.572-2.584
	c-0.369-0.697-0.737-1.271-1.229-1.641c-0.943-0.778-1.436-1.065-5.453-2.666c-3.239-1.312-4.838-2.049-6.232-3.196
	c-1.599-1.313-2.542-3.321-2.542-5.412c0-4.552,4.307-8.241,9.596-8.241c1.313,0,3.074,0.205,4.633,0.615
	c0.901,0.205,1.353,0.328,1.722,0.328c0.738,0,1.189-0.205,1.643-0.779l0.654,0.041c-0.246,1.599-0.45,2.87-0.45,3.648
	c0,0.738,0.164,1.846,0.368,3.321l-0.695,0.041c-0.861-4.059-3.28-5.986-7.503-5.986c-3.938,0-6.931,2.542-6.931,5.863
	c0,2.46,1.519,4.222,4.756,5.494l3.158,1.229c2.993,1.148,4.552,2.052,5.698,3.158c1.477,1.477,2.379,3.525,2.379,5.576
	c0,4.797-4.101,8.035-10.168,8.035c-1.723,0-3.896-0.328-5.7-0.82c-0.818-0.205-1.435-0.326-1.64-0.326
	c-0.451,0-0.656,0.203-0.82,0.9l-0.656,0.082c-0.244-3.443-0.408-4.306-1.435-7.871L15.026,213.639z"/>
<path fill="#FFFFFF" d="M34.541,220.566c0.287-0.041,0.573-0.082,0.819-0.123c0.491-0.041,0.901-0.203,1.271-0.367
	c0.287-0.164,0.574-0.492,0.697-0.82c0.368-0.943,0.409-1.764,0.409-7.75c0-3.896-0.409-4.92-1.806-4.92c-0.246,0-0.572,0-0.9,0.041
	l-0.082-0.41c2.747-1.107,3.361-1.476,5.781-3.156h0.49c-0.205,2.09-0.369,3.689-0.449,4.715c-0.123,2.215-0.287,5.207-0.287,6.108
	v0.574l0.123,3.36c0.082,1.888,0.531,2.421,2.501,2.625l0.86,0.08l0.041,0.656c-2.051-0.123-3.566-0.164-4.592-0.164
	c-1.066,0-2.707,0.041-4.88,0.164v-0.613H34.541z M40.041,191.906c0.943,0,1.723,0.819,1.723,1.804c0,0.901-0.777,1.681-1.723,1.681
	c-0.941,0-1.722-0.779-1.722-1.681C38.32,192.726,39.098,191.906,40.041,191.906z"/>
</svg>
