<?xml version="1.0" encoding="utf-8"?>
<!-- Generator: Adobe Illustrator 13.0.0, SVG Export Plug-In  -->
<!DOCTYPE svg PUBLIC "-//W3C//DTD SVG 1.1//EN" "http://www.w3.org/Graphics/SVG/1.1/DTD/svg11.dtd" [
	<!ENTITY ns_flows "http://ns.adobe.com/Flows/1.0/">
]>
<svg version="1.1"
	 xmlns="http://www.w3.org/2000/svg" xmlns:xlink="http://www.w3.org/1999/xlink" xmlns:a="http://ns.adobe.com/AdobeSVGViewerExtensions/3.0/"
	 x="0px" y="0px" width="262px" height="111px" viewBox="0.002 0 262 111" enable-background="new 0.002 0 262 111"
	 xml:space="preserve">
<defs>
</defs>
<path d="M52.737,87.136c3.313-1.566,4.049-5.712,8.65-5.989c0.873,4.412-3.953,7.946-7.319,11.313c-1.6,1.6-3.061,3.427-4.657,4.992
	c-1.813,1.771-4.052,3.058-4.991,4.323c-0.662,0.893-1.67,2.655-0.998,3.327c0.423,0.424,5.025-2.543,5.989-3.327
	c1.553-1.263,2.008-2.625,2.993-3.991c1.496,0.462,2.202,1.479,3.66,0.332c0.66,0.63,0.162,1.571,0,2.329
	c2.207-0.828,3.269-4.439,6.654-2.993c-0.146,2.083-1,2.713-2.328,4.323c0.053-0.063-3.103,2.472-2.662,3.661
	c1.693,4.582,7.648-4.132,8.65-4.991c1.241-1.066,7.153-4.613,8.317-0.998c0.563,1.743-2.026,2.106-2.328,4.325
	c0.335,1.322,2.005,0.319,2.994,0.332c-0.392,1.19-0.938,2.631-2.33,2.662c-1.248,0.027-1.677-1.979-2.661-1.997
	c-0.742-0.014-2.3,2.305-4.658,2.33c-0.596,0.006-1.771-0.755-2.328-0.666c-2.493,0.398-3.559,2.582-5.656,1.663
	c-3.263-1.426,0.258-6.113,1.996-8.316c-2.229-0.919-6.047,7.959-7.986,7.319c-1.978-0.651,1.89-4.318,2.33-5.657
	c-2.975-0.167-3.688,4.716-5.988,6.321c-1.431,0.321-0.583-1.633-1.664-1.663c-1.581,0.307-2.226,1.546-3.993,1.663
	c-0.78-0.549-0.721-1.938-0.666-3.326c-1.989-0.04-4.567,4.396-6.322,0.332c-1.75,0.357-4.945,4.039-6.987,1.997
	c-2.375-2.375,4.343-8.251,6.322-8.65c5.615-1.137,5.132,2.76,2.329,5.656c6.787-0.432,9.448-8.775,13.309-13.642
	c-2.153-0.199-3.368,1.604-5.323,1.996c-6.266,1.252-15.25,2.245-21.294,2.994c-2.628,0.326-5.713,7.887-6.321,10.646
	c-0.314,1.424,0.98,3.194-0.666,3.992c-3.924-1.479,2.709-10.234,2.994-13.642c-1.865,1.105-4.789-3.013-1.997-3.992
	c0.721-0.253,1.888,0.806,2.33,0.665c2.356-0.749,2.93-3.175,3.993-5.656c1.394-3.254,4.759-7.735-1.331-7.319
	c-5.321,0.362-14.437,2.959-18.3,6.321c-1.842,1.603-4.668,6.34-1.331,8.651c0.548,0.379,3.821,1.335,3.992,1.33
	c0.462-0.015,3.586-2.462,4.325-0.332c0.672,1.936-1.922,3.249-2.329,3.327c0.486-0.094-3.553-0.696-4.325-0.999
	c-9.732-3.806-2.645-12.872,2.995-15.971c7.149-3.929,17.365-4.386,27.949-3.329c3.946,0.396,12.245,2.427,14.641,3.993
	C51.043,83.226,52.915,85.058,52.737,87.136z M38.098,91.461c3.652-0.63,13-1.512,12.977-4.99
	c-0.026-3.584-16.411-6.666-21.295-6.654c-1.617,0.004-2.181,4.32-2.661,5.656c-1.224,3.396-3.27,5.327-4.326,8.649
	C27.681,93.272,32.439,92.437,38.098,91.461z M47.082,97.451c4.728-3.925,8.865-8.438,12.644-13.311
	c-0.07-0.374-0.369-0.519-0.666-0.666C54.398,87.466,50.124,91.841,47.082,97.451z M29.779,105.103
	c2.858,0.202,5.821-2.086,6.987-4.657C33.623,99.89,30.436,102.069,29.779,105.103z M65.048,105.103
	c2.755,0.1,6.183-1.725,6.655-4.99C68.337,100.627,65.834,102.007,65.048,105.103z"/>
<path d="M91.667,101.441c-1.809,2.561-6.726,0.107-6.987,2.995c-0.146,1.601,7.026,4.1,10.647,4.658
	c2.766,0.427,6.209,0.518,9.315,0.665c7.414,0.352,20.142-1.761,19.631-8.983c-0.186-2.629-3.598-5.66-5.989-6.654
	c-1.425-0.593-4.094-0.736-6.654-1.33c-4.579-1.063-7.404-1.789-12.644-2.661c-2.938-0.489-5.577-0.219-5.988-2.329
	c-0.526-2.7,4.572-5.286,6.986-5.989c3.854-1.123,9.746-1.443,11.979,1.33c1.035,1.287,1.698,2.961,0.332,3.661
	c-1.289,0.658-3.414-2.687-4.325-2.995c-2.516-0.854-12.927,0.733-12.644,2.995c0.156,1.259,8.657,2.451,11.645,2.994
	c4.657,0.846,8.271,1.188,11.646,2.661c4.791,2.092,9.925,7.417,5.655,13.31c-2.576,3.557-10.22,5.39-16.637,5.656
	c-6.731,0.28-17.688-0.71-21.959-3.328c-1.247-0.763-2.646-2.809-2.662-3.659C82.967,101.92,86.854,99.549,91.667,101.441z"/>
<path d="M159.21,91.794c-4.594,0.467-4.069,0.618-6.323,3.993c-2.02,3.023-3.264,5.113-5.323,8.316
	c1.271,0.988,5.796-1.247,7.32-2.662c0.235-0.219,3.92-5.879,4.658-2.66c0.512,2.23-4.333,3.292-3.993,4.657
	c0.647,2.607,5.458-0.937,5.989-1.332c1.219-0.905,3.07-3.727,3.66-3.991c0.86-0.388,2.205,0.762,3.658,0
	c0.661,0.63,0.162,1.571,0,2.329c1.303,0.03,4.293-5.357,6.655-2.993c1.172,1.171-7.158,7.886-4.325,8.981
	c1.998,0.773,2.343-1.19,4.99-2.661c1.71-0.947,3.526-1.101,4.326-1.665c1.573-1.106,2.249-3.62,3.326-3.991
	c2.753-0.95,1.967,1.562,0.333,3.326c-0.482,0.523-2.591,1.034-1.996,2.33c0.615,1.345,5.773-1.347,5.324,0.997
	c-0.265,1.361-3.567,1.721-4.991,1.331c-1.169-0.317-1.563-1.24-2.329-1.996c-0.757,1.223-2.297,1.245-3.66,1.996
	c-1.404,0.774-2.735,2.319-3.992,2.33c-5.071,0.042-2.859-6.085,0-8.318c-3.581,0.104-4.587,5.6-7.984,6.987
	c-1.178-2.689,2.236-3.478,2.328-5.989c-3.091,1.014-3.716,4.492-5.989,6.321c-1.443,0.284-0.493-1.256-1.662-1.663
	c-1.104-0.384-2.49,0.621-3.328,0.332c-0.806-0.275-1.377-1.935-1.997-1.996c-2.47-0.242-3.42,3.83-6.654,3.327
	c-0.868-0.584-0.784-2.319-0.332-3.327c-2.014,1.595-7.361,6.391-6.322,0c-3.033,0.773-5.497,4.159-10.646,3.659
	c-1.971-0.189-4.08-1.491-3.993-3.326c0.047-0.979,3.966-4.794,5.989-5.988c1.041-0.615,4.882-2.056,5.655-0.997
	c1.354,1.847-3.775,4.388-3.659,4.323c-1.163,0.643-8.854,2.661-4.326,3.993c2.568,0.754,8.031-1.024,10.315-2.994
	c0.73-0.631,6.311-8.098,5.987-8.651c-0.963-1.661-8.108,1.426-8.649-0.997c-0.425-1.907,3.385-0.914,4.991-0.998
	c5.494-0.289,6.521-1.744,8.981-5.323c1.536-2.233,2.233-3.526,2.995-4.658c0.529-0.787,0.637-1.573,2.329-0.666
	c-1.587,3.626-4.625,5.8-6.321,9.316c0.575,1.173,0.954-0.317,1.997-0.333c-0.354,0.005,1.853,0.479,1.33,0.665
	c1.523-0.541,3.045-3.208,4.326-4.99c1.296-1.804,2.06-4.714,4.324-4.991c0.679,1.683-0.762,2.761-1.995,4.326
	c-0.596,0.754-3.263,3.443-2.995,3.993c0.577,1.188,8.75-0.15,11.978-0.334c7.673-0.437,15.078-0.582,20.629,0.666
	c1.328,0.979-1.076,1.095-1.33,2.329c-0.164,0.804,0.649,1.38,0.333,1.995c-0.717,1.392-3.277,3.437-3.992,1.665
	c-0.904-2.243,1.788-1.512,2.329-2.995c-2.535-3.835-13.638-1.88-20.297-1.664 M148.23,93.458c-1.116,0.726-3.013,4.596-3.66,5.656
	c-1.228,2.008-3.252,3.911-2.661,5.987c5.632-2.354,8.162-7.809,11.313-12.644c-0.074-0.258-0.01-0.656-0.333-0.665
	C152.229,93.452,149.674,92.519,148.23,93.458z M130.928,102.106c1.051-1.167,3.379-1.057,3.66-2.992
	C133.189,99.663,129.467,100.85,130.928,102.106z"/>
<path d="M218.102,81.813c0.224,0,0.443,0,0.665,0c1.351-0.129,0.366,2.073,0.665,2.994c8.908,0.622,18.104,3.868,29.614,2.995
	c2.61-0.199,5.88-0.39,7.983-0.998c0.602-0.175,3.661-2.744,4.325-1.664c1.291,2.101-3.739,3.359-5.988,3.659
	c-10.148,1.358-23.312-0.063-32.273-1.995c-1.059-0.229-3.379-1.203-4.326-0.666c-1.085,0.614-2.804,6.89-3.327,8.317
	c-0.703,1.918-3.581,9.391-1.663,10.313c0.746,0.361,3.604,0.025,4.99-0.332c0.563-0.146,4.487-3.053,4.659,0
	c0.156,2.797-4.122,1.063-7.653,1.663c-1.016,0.174-2.084,1.31-2.662,1.331c-0.558,0.021-2.028-1.264-2.661-1.331
	c-1.362-0.143-8.051,2.863-8.65,0c2.684-2.938,8.086,1.032,9.98-1.996c0.232-0.371-0.132-2.693,0-3.659
	c0.213-1.549,1.486-4.7,2.329-6.986c0.783-2.123,2.938-6.192,2.661-6.654c-1.112-1.876-10.869,0.208-12.642,0.665
	c-0.667,0.171-3.074,2.054-3.993,0.665c-3.071-4.639,15.16-2.275,16.635-2.994C217.921,84.578,217.724,83.188,218.102,81.813z"/>
<path d="M162.87,92.459c1.576,3.281-4.154,5.897-3.993,2.662C158.914,94.397,161.451,92.736,162.87,92.459z"/>
<path d="M234.072,96.784c-0.297,1.035-1.111,1.551-1.33,2.661c0.891,0.192,4.147-4.452,5.655-1.662
	c0.632,1.168-3.409,4.541-2.662,5.988c1.219,2.358,5.498-2.349,6.322-2.995c2.27-1.777,3.521-3.482,6.321-3.325
	c0.601,2.021-1.819,1.825-2.662,2.327c-1.774,1.059-3.574,2.143-4.656,3.66c2.075,2.19,5.227-1.463,7.318-0.332
	c-0.735,1.211-3.916,2.982-6.987,2.661c-0.41-0.043-1.604-1.02-1.995-0.999c-1.583,0.083-3.809,2.647-4.992,0.333
	c-0.935-1.83,1.477-3.943,1.997-5.987c-4.362,0.517-5.053,4.705-7.984,6.653c-1.167-1.86,1.47-2.422,1.663-3.993
	c-2.178,0.016-2.646,2.85-4.657,1.997c0.302-2.059,2.564-1.84,4.324-3.327C231.45,99.005,232.143,95.995,234.072,96.784z"/>
<rect x="91.792" fill="#EC008C" width="66.167" height="60"/>
<path fill="#FFFFFF" d="M105.108,22.252c1.518,0,2.092,0.041,3.156,0.041h0.82c1.804,0,2.132-0.041,4.264-0.205
	c1.066-0.082,2.092-0.164,2.788-0.164c6.52,0,12.014,4.469,12.014,9.799c0,5.494-5.494,9.717-12.628,9.717
	c-1.229,0-1.928-0.041-3.484-0.287v3.157l0.082,3.813c0.041,2.256,0.286,2.625,1.681,2.994c0.492,0.123,1.025,0.245,1.641,0.327
	c0.287,0,0.655,0.041,1.106,0.081v0.615c-2.501-0.082-4.346-0.123-5.576-0.123c-1.229,0-3.074,0.041-5.494,0.123v-0.574l0.738-0.122
	c2.091-0.368,2.337-0.901,2.419-4.839l0.164-10.004l-0.123-9.389c-0.041-2.952-0.901-4.019-3.566-4.387L105.108,22.252
	L105.108,22.252z M112.365,23.563c-0.327,5.248-0.45,7.79-0.45,10.578c0,1.477,0,3.321,0.041,5.576
	c1.517,0.451,2.05,0.533,3.279,0.533c5.576,0,9.226-3.28,9.226-8.159c0-5.002-4.101-8.979-9.308-8.979
	C114.169,23.112,113.677,23.194,112.365,23.563z"/>
<path fill="#FFFFFF" d="M117.245,44.639c0.123,0.369,0.245,0.615,0.286,0.82c0.901,2.459,0.983,2.623,1.887,3.36
	c1.64,1.437,5.125,2.462,8.036,2.462c3.854,0,6.478-2.216,6.478-5.494c0-0.861-0.164-1.765-0.573-2.584
	c-0.369-0.697-0.737-1.271-1.229-1.641c-0.943-0.778-1.436-1.065-5.453-2.665c-3.239-1.312-4.838-2.05-6.232-3.197
	c-1.599-1.313-2.542-3.321-2.542-5.412c0-4.552,4.307-8.241,9.596-8.241c1.312,0,3.074,0.205,4.633,0.615
	c0.901,0.205,1.353,0.328,1.722,0.328c0.738,0,1.189-0.205,1.642-0.779l0.654,0.041c-0.245,1.599-0.45,2.87-0.45,3.648
	c0,0.738,0.164,1.846,0.368,3.321l-0.695,0.041c-0.861-4.059-3.28-5.986-7.503-5.986c-3.938,0-6.931,2.542-6.931,5.863
	c0,2.46,1.519,4.223,4.756,5.494l3.157,1.229c2.993,1.148,4.552,2.051,5.699,3.157c1.477,1.477,2.378,3.526,2.378,5.576
	c0,4.797-4.1,8.036-10.168,8.036c-1.722,0-3.896-0.328-5.699-0.82c-0.818-0.205-1.435-0.327-1.64-0.327
	c-0.451,0-0.656,0.204-0.82,0.901l-0.656,0.082c-0.244-3.444-0.408-4.306-1.435-7.872L117.245,44.639z"/>
<path fill="#FFFFFF" d="M136.76,51.566c0.287-0.041,0.573-0.081,0.819-0.122c0.491-0.041,0.901-0.204,1.271-0.368
	c0.287-0.164,0.574-0.492,0.697-0.82c0.368-0.943,0.409-1.764,0.409-7.75c0-3.896-0.409-4.92-1.805-4.92
	c-0.246,0-0.573,0-0.901,0.041l-0.082-0.41c2.747-1.107,3.361-1.476,5.781-3.157h0.491c-0.205,2.091-0.369,3.69-0.45,4.715
	c-0.123,2.215-0.287,5.207-0.287,6.109v0.574l0.123,3.36c0.082,1.888,0.532,2.421,2.501,2.625l0.86,0.081l0.041,0.656
	c-2.05-0.123-3.566-0.164-4.592-0.164c-1.066,0-2.706,0.041-4.879,0.164v-0.614H136.76z M142.26,22.906
	c0.943,0,1.723,0.819,1.723,1.804c0,0.901-0.778,1.681-1.723,1.681c-0.942,0-1.722-0.779-1.722-1.681
	C140.539,23.726,141.317,22.906,142.26,22.906z"/>
</svg>
