<?xml version="1.0" encoding="utf-8"?>
<!-- Generator: Adobe Illustrator 13.0.0, SVG Export Plug-In . SVG Version: 6.00 Build 14948)  -->
<!DOCTYPE svg PUBLIC "-//W3C//DTD SVG 1.1//EN" "http://www.w3.org/Graphics/SVG/1.1/DTD/svg11.dtd">
<svg version="1.1" id="Layer_1" xmlns="http://www.w3.org/2000/svg" xmlns:xlink="http://www.w3.org/1999/xlink" x="0px" y="0px"
	 width="261.563px" height="111.471px" viewBox="0 0 261.563 111.471" enable-background="new 0 0 261.563 111.471"
	 xml:space="preserve">
<g>
	<path fill-rule="evenodd" clip-rule="evenodd" d="M52.736,87.136c3.313-1.566,4.048-5.712,8.65-5.989
		c0.873,4.412-3.953,7.946-7.319,11.313c-1.6,1.6-3.061,3.427-4.658,4.992c-1.813,1.772-4.051,3.058-4.991,4.324
		c-0.662,0.892-1.67,2.655-0.998,3.327c0.423,0.424,5.026-2.543,5.989-3.327c1.553-1.263,2.008-2.625,2.994-3.992
		c1.496,0.462,2.202,1.479,3.66,0.332c0.66,0.63,0.162,1.572,0,2.33c2.207-0.829,3.268-4.44,6.654-2.994
		c-0.146,2.083-1,2.713-2.328,4.324c0.053-0.064-3.103,2.471-2.662,3.661c1.693,4.582,7.648-4.132,8.65-4.991
		c1.241-1.067,7.154-4.614,8.318-0.999c0.563,1.744-2.027,2.107-2.329,4.326c0.335,1.322,2.005,0.319,2.995,0.332
		c-0.392,1.19-0.938,2.631-2.33,2.662c-1.249,0.027-1.677-1.979-2.662-1.997c-0.742-0.014-2.299,2.304-4.658,2.33
		c-0.596,0.006-1.771-0.755-2.328-0.666c-2.493,0.398-3.559,2.582-5.656,1.663c-3.263-1.426,0.258-6.113,1.996-8.317
		c-2.229-0.918-6.047,7.959-7.986,7.32c-1.978-0.652,1.889-4.319,2.33-5.657c-2.975-0.167-3.688,4.715-5.989,6.321
		c-1.43,0.321-0.583-1.633-1.664-1.663c-1.581,0.306-2.225,1.546-3.993,1.663c-0.78-0.549-0.721-1.939-0.666-3.326
		c-1.989-0.04-4.567,4.396-6.322,0.332c-1.75,0.357-4.945,4.039-6.987,1.997c-2.375-2.375,4.342-8.251,6.322-8.651
		c5.615-1.136,5.132,2.76,2.329,5.657c6.787-0.432,9.448-8.776,13.309-13.642c-2.154-0.199-3.369,1.605-5.324,1.996
		c-6.265,1.252-15.25,2.245-21.294,2.994c-2.628,0.326-5.713,7.887-6.321,10.647c-0.314,1.424,0.981,3.194-0.666,3.992
		c-3.924-1.479,2.709-10.234,2.994-13.642c-1.865,1.106-4.789-3.012-1.997-3.992c0.721-0.253,1.888,0.806,2.33,0.665
		c2.357-0.749,2.93-3.175,3.993-5.656c1.394-3.254,4.759-7.735-1.331-7.319c-5.321,0.362-14.436,2.959-18.3,6.321
		c-1.841,1.602-4.667,6.34-1.331,8.651c0.548,0.379,3.822,1.335,3.993,1.33c0.462-0.014,3.586-2.462,4.325-0.332
		c0.672,1.936-1.922,3.249-2.329,3.327c0.486-0.093-3.553-0.696-4.325-0.999c-9.733-3.805-2.645-12.872,2.995-15.97
		c7.149-3.929,17.365-4.386,27.949-3.329c3.946,0.396,12.245,2.426,14.64,3.993C51.042,83.226,52.913,85.058,52.736,87.136z
		 M38.097,91.461c3.652-0.63,13-1.512,12.976-4.99c-0.026-3.584-16.411-6.666-21.294-6.654c-1.618,0.004-2.181,4.32-2.662,5.656
		c-1.223,3.396-3.269,5.327-4.326,8.649C27.68,93.273,32.438,92.437,38.097,91.461z M47.08,97.451
		c4.728-3.924,8.866-8.437,12.644-13.31c-0.07-0.374-0.369-0.519-0.666-0.666C54.397,87.466,50.122,91.841,47.08,97.451z
		 M29.778,105.103c2.858,0.202,5.821-2.086,6.987-4.657C33.621,99.89,30.435,102.07,29.778,105.103z M65.047,105.103
		c2.755,0.099,6.183-1.725,6.655-4.99C68.336,100.627,65.833,102.007,65.047,105.103z"/>
	<path fill-rule="evenodd" clip-rule="evenodd" d="M91.665,101.442c-1.808,2.56-6.725,0.107-6.987,2.995
		c-0.146,1.6,7.026,4.099,10.647,4.658c2.766,0.427,6.209,0.518,9.316,0.665c7.414,0.352,20.141-1.761,19.631-8.983
		c-0.186-2.629-3.598-5.661-5.99-6.655c-1.424-0.592-4.093-0.736-6.654-1.33c-4.579-1.062-7.404-1.789-12.643-2.661
		c-2.939-0.489-5.578-0.219-5.989-2.329c-0.526-2.7,4.573-5.286,6.987-5.989c3.854-1.123,9.746-1.444,11.979,1.33
		c1.035,1.287,1.698,2.961,0.332,3.661c-1.289,0.658-3.414-2.687-4.325-2.995c-2.516-0.854-12.927,0.733-12.644,2.995
		c0.157,1.259,8.658,2.451,11.645,2.994c4.657,0.846,8.271,1.188,11.646,2.661c4.791,2.092,9.925,7.417,5.656,13.31
		c-2.576,3.556-10.22,5.389-16.637,5.656c-6.731,0.28-17.688-0.71-21.959-3.328c-1.247-0.763-2.646-2.809-2.662-3.659
		C82.966,101.92,86.853,99.549,91.665,101.442z"/>
	<path fill-rule="evenodd" clip-rule="evenodd" d="M159.209,91.794c-4.594,0.467-4.069,0.618-6.323,3.993
		c-2.02,3.024-3.264,5.114-5.323,8.317c1.271,0.988,5.796-1.247,7.32-2.662c0.235-0.219,3.92-5.879,4.658-2.661
		c0.512,2.231-4.333,3.292-3.993,4.658c0.648,2.607,5.458-0.937,5.989-1.332c1.219-0.906,3.071-3.727,3.66-3.992
		c0.861-0.387,2.206,0.762,3.659,0c0.661,0.63,0.162,1.572,0,2.33c1.302,0.03,4.293-5.358,6.655-2.994
		c1.172,1.171-7.158,7.886-4.325,8.982c1.998,0.773,2.343-1.191,4.99-2.661c1.71-0.948,3.526-1.101,4.326-1.665
		c1.573-1.107,2.249-3.62,3.326-3.992c2.753-0.95,1.967,1.562,0.333,3.327c-0.482,0.523-2.59,1.034-1.996,2.33
		c0.615,1.344,5.774-1.347,5.324,0.997c-0.264,1.361-3.567,1.72-4.991,1.331c-1.169-0.318-1.563-1.24-2.329-1.996
		c-0.757,1.222-2.297,1.245-3.66,1.996c-1.404,0.774-2.735,2.319-3.992,2.33c-5.071,0.042-2.86-6.085,0-8.318
		c-3.581,0.104-4.587,5.599-7.985,6.987c-1.177-2.69,2.237-3.478,2.329-5.989c-3.091,1.013-3.716,4.492-5.99,6.321
		c-1.443,0.284-0.493-1.256-1.662-1.663c-1.103-0.384-2.49,0.621-3.328,0.332c-0.806-0.276-1.377-1.935-1.997-1.996
		c-2.47-0.242-3.42,3.83-6.654,3.327c-0.868-0.584-0.784-2.319-0.332-3.327c-2.014,1.594-7.362,6.39-6.323,0
		c-3.033,0.773-5.497,4.159-10.646,3.659c-1.971-0.19-4.08-1.491-3.993-3.326c0.047-0.979,3.966-4.794,5.989-5.989
		c1.041-0.615,4.882-2.055,5.655-0.997c1.354,1.847-3.775,4.388-3.659,4.324c-1.163,0.642-8.854,2.661-4.326,3.993
		c2.568,0.754,8.031-1.025,10.315-2.994c0.731-0.631,6.311-8.098,5.988-8.652c-0.963-1.661-8.109,1.426-8.65-0.997
		c-0.425-1.907,3.385-0.914,4.991-0.998c5.495-0.289,6.521-1.744,8.982-5.323c1.536-2.233,2.233-3.526,2.995-4.658
		c0.529-0.787,0.637-1.574,2.329-0.666c-1.587,3.626-4.625,5.8-6.321,9.316c0.575,1.173,0.954-0.317,1.997-0.333
		c-0.354,0.005,1.852,0.479,1.33,0.665c1.523-0.541,3.045-3.208,4.326-4.99c1.296-1.804,2.06-4.714,4.324-4.991
		c0.679,1.682-0.761,2.76-1.995,4.326c-0.595,0.754-3.262,3.443-2.995,3.993c0.577,1.188,8.75-0.15,11.978-0.334
		c7.673-0.436,15.078-0.582,20.629,0.666c1.328,0.98-1.077,1.095-1.33,2.329c-0.165,0.804,0.649,1.38,0.333,1.995
		c-0.717,1.392-3.278,3.437-3.993,1.665c-0.904-2.243,1.788-1.511,2.329-2.995c-2.535-3.835-13.637-1.88-20.296-1.664
		 M148.229,93.458c-1.116,0.726-3.013,4.596-3.66,5.656c-1.228,2.008-3.252,3.912-2.662,5.988
		c5.632-2.354,8.163-7.809,11.313-12.644c-0.074-0.258-0.01-0.656-0.333-0.665C152.228,93.452,149.673,92.519,148.229,93.458z
		 M130.927,102.107c1.051-1.167,3.379-1.057,3.66-2.993C133.188,99.663,129.466,100.85,130.927,102.107z"/>
	<path fill-rule="evenodd" clip-rule="evenodd" d="M218.101,81.813c0.223,0,0.443,0,0.665,0c1.35-0.129,0.366,2.073,0.665,2.994
		c8.908,0.622,18.104,3.868,29.614,2.995c2.611-0.199,5.88-0.39,7.984-0.998c0.601-0.175,3.661-2.744,4.325-1.664
		c1.291,2.1-3.74,3.359-5.989,3.659c-10.148,1.358-23.311-0.063-32.273-1.995c-1.059-0.229-3.379-1.203-4.326-0.666
		c-1.085,0.614-2.804,6.89-3.327,8.317c-0.703,1.918-3.581,9.391-1.663,10.314c0.746,0.361,3.604,0.025,4.99-0.332
		c0.563-0.146,4.487-3.053,4.659,0c0.156,2.797-4.122,1.062-7.653,1.663c-1.016,0.174-2.084,1.309-2.662,1.331
		c-0.558,0.021-2.029-1.264-2.662-1.331c-1.362-0.143-8.05,2.863-8.65,0c2.684-2.938,8.086,1.032,9.981-1.996
		c0.232-0.371-0.132-2.694,0-3.659c0.212-1.549,1.486-4.701,2.329-6.987c0.783-2.123,2.937-6.192,2.661-6.654
		c-1.113-1.876-10.869,0.208-12.642,0.665c-0.667,0.171-3.074,2.054-3.993,0.665c-3.071-4.639,15.16-2.275,16.635-2.994
		C217.92,84.578,217.723,83.189,218.101,81.813z"/>
	<path fill-rule="evenodd" clip-rule="evenodd" d="M162.868,92.459c1.577,3.281-4.154,5.898-3.993,2.662
		C158.912,94.398,161.449,92.737,162.868,92.459z"/>
	<path fill-rule="evenodd" clip-rule="evenodd" d="M234.071,96.784c-0.297,1.036-1.112,1.551-1.331,2.662
		c0.891,0.192,4.148-4.453,5.656-1.663c0.632,1.168-3.409,4.541-2.662,5.989c1.218,2.358,5.498-2.349,6.322-2.995
		c2.269-1.778,3.521-3.483,6.321-3.326c0.601,2.021-1.819,1.826-2.662,2.328c-1.774,1.058-3.574,2.142-4.656,3.66
		c2.075,2.19,5.226-1.463,7.318-0.332c-0.735,1.211-3.916,2.982-6.987,2.661c-0.41-0.043-1.604-1.02-1.995-0.999
		c-1.583,0.083-3.809,2.647-4.992,0.333c-0.935-1.83,1.476-3.944,1.997-5.988c-4.363,0.517-5.053,4.706-7.985,6.654
		c-1.167-1.861,1.47-2.422,1.663-3.993c-2.177,0.015-2.645,2.849-4.657,1.997c0.302-2.059,2.565-1.84,4.324-3.327
		C231.448,99.005,232.142,95.995,234.071,96.784z"/>
</g>
<rect x="91.79" fill="#EC008C" width="66.167" height="60"/>
<path fill="#FFFFFF" d="M105.107,22.252c1.517,0,2.091,0.041,3.156,0.041h0.82c1.804,0,2.132-0.041,4.264-0.205
	c1.066-0.082,2.092-0.164,2.788-0.164c6.52,0,12.014,4.469,12.014,9.799c0,5.494-5.494,9.717-12.628,9.717
	c-1.23,0-1.928-0.041-3.485-0.287v3.157l0.082,3.813c0.041,2.256,0.287,2.625,1.681,2.994c0.492,0.123,1.025,0.246,1.641,0.328
	c0.287,0,0.655,0.041,1.106,0.081v0.615c-2.501-0.082-4.346-0.123-5.576-0.123c-1.229,0-3.074,0.041-5.494,0.123v-0.574l0.738-0.122
	c2.091-0.369,2.337-0.902,2.419-4.839l0.164-10.004l-0.123-9.389c-0.041-2.952-0.901-4.018-3.566-4.387V22.252z M112.364,23.564
	c-0.328,5.248-0.451,7.79-0.451,10.578c0,1.476,0,3.321,0.041,5.576c1.517,0.451,2.05,0.533,3.28,0.533
	c5.576,0,9.225-3.28,9.225-8.159c0-5.002-4.1-8.979-9.307-8.979C114.168,23.113,113.676,23.195,112.364,23.564z"/>
<path fill="#FFFFFF" d="M117.243,44.639c0.123,0.369,0.246,0.615,0.287,0.82c0.901,2.459,0.983,2.623,1.886,3.361
	c1.64,1.436,5.125,2.461,8.036,2.461c3.854,0,6.478-2.215,6.478-5.494c0-0.861-0.164-1.764-0.573-2.584
	c-0.369-0.697-0.738-1.271-1.23-1.64c-0.943-0.779-1.435-1.066-5.453-2.665c-3.239-1.312-4.838-2.05-6.232-3.198
	c-1.599-1.312-2.542-3.321-2.542-5.412c0-4.551,4.306-8.241,9.595-8.241c1.312,0,3.075,0.205,4.633,0.615
	c0.902,0.205,1.353,0.328,1.722,0.328c0.738,0,1.189-0.205,1.641-0.779l0.655,0.041c-0.245,1.599-0.45,2.87-0.45,3.649
	c0,0.738,0.164,1.845,0.368,3.321l-0.696,0.041c-0.861-4.059-3.28-5.986-7.503-5.986c-3.937,0-6.93,2.542-6.93,5.863
	c0,2.46,1.518,4.223,4.756,5.494l3.157,1.23c2.993,1.148,4.552,2.05,5.699,3.157c1.477,1.476,2.378,3.526,2.378,5.576
	c0,4.797-4.1,8.036-10.168,8.036c-1.722,0-3.895-0.328-5.699-0.82c-0.819-0.205-1.435-0.327-1.64-0.327
	c-0.451,0-0.656,0.204-0.82,0.901l-0.656,0.082c-0.245-3.444-0.409-4.306-1.435-7.872L117.243,44.639z"/>
<path fill="#FFFFFF" d="M136.759,51.567c0.287-0.041,0.573-0.081,0.819-0.122c0.492-0.041,0.902-0.205,1.271-0.369
	c0.287-0.164,0.574-0.492,0.697-0.82c0.368-0.943,0.409-1.764,0.409-7.75c0-3.895-0.409-4.92-1.804-4.92
	c-0.246,0-0.574,0-0.902,0.041l-0.082-0.41c2.747-1.107,3.362-1.476,5.781-3.157h0.492c-0.205,2.091-0.369,3.69-0.451,4.715
	c-0.123,2.214-0.287,5.207-0.287,6.109v0.574l0.123,3.361c0.082,1.887,0.533,2.42,2.501,2.625l0.861,0.081l0.041,0.656
	c-2.05-0.123-3.567-0.164-4.592-0.164c-1.066,0-2.706,0.041-4.879,0.164V51.567z M142.259,22.906c0.943,0,1.723,0.82,1.723,1.804
	c0,0.902-0.779,1.681-1.723,1.681c-0.942,0-1.722-0.779-1.722-1.681C140.537,23.726,141.316,22.906,142.259,22.906z"/>
</svg>
