<?xml version="1.0" encoding="utf-8"?>
<!-- Generator: Adobe Illustrator 13.0.0, SVG Export Plug-In . SVG Version: 6.00 Build 14948)  -->
<!DOCTYPE svg PUBLIC "-//W3C//DTD SVG 1.1//EN" "http://www.w3.org/Graphics/SVG/1.1/DTD/svg11.dtd">
<svg version="1.1" id="Layer_1" xmlns="http://www.w3.org/2000/svg" xmlns:xlink="http://www.w3.org/1999/xlink" x="0px" y="0px"
	 width="261.563px" height="111.471px" viewBox="0 0 261.563 111.471" enable-background="new 0 0 261.563 111.471"
	 xml:space="preserve">
<g>
	<path d="M87.743,73.063c1.806-0.854,2.207-3.112,4.715-3.264c0.476,2.404-2.155,4.331-3.99,6.166
		c-0.872,0.872-1.668,1.868-2.538,2.721c-0.989,0.966-2.208,1.667-2.721,2.356c-0.361,0.487-0.91,1.448-0.544,1.813
		c0.23,0.231,2.739-1.386,3.265-1.813c0.846-0.688,1.094-1.431,1.631-2.175c0.815,0.251,1.2,0.806,1.995,0.181
		c0.36,0.344,0.088,0.856,0,1.27c1.203-0.452,1.781-2.42,3.627-1.632c-0.08,1.136-0.545,1.479-1.27,2.356
		c0.029-0.034-1.691,1.348-1.451,1.995c0.923,2.498,4.169-2.251,4.715-2.72c0.676-0.582,3.899-2.515,4.534-0.544
		c0.307,0.95-1.104,1.147-1.27,2.357c0.183,0.721,1.093,0.174,1.632,0.181c-0.213,0.649-0.511,1.434-1.27,1.451
		c-0.68,0.015-0.914-1.078-1.45-1.089c-0.405-0.008-1.254,1.257-2.539,1.271c-0.325,0.003-0.966-0.412-1.269-0.363
		c-1.359,0.218-1.939,1.408-3.083,0.906c-1.778-0.777,0.141-3.332,1.088-4.532c-1.215-0.501-3.296,4.338-4.353,3.989
		c-1.078-0.354,1.03-2.354,1.27-3.083c-1.621-0.092-2.01,2.57-3.264,3.445c-0.78,0.175-0.318-0.891-0.907-0.907
		c-0.862,0.167-1.213,0.843-2.176,0.907c-0.425-0.3-0.393-1.058-0.363-1.813c-1.084-0.021-2.489,2.396-3.446,0.181
		c-0.954,0.195-2.695,2.201-3.808,1.089c-1.294-1.294,2.367-4.497,3.446-4.715c3.061-0.619,2.797,1.505,1.27,3.083
		c3.699-0.235,5.149-4.783,7.254-7.436c-1.174-0.108-1.836,0.875-2.902,1.089c-3.415,0.682-8.312,1.223-11.606,1.631
		c-1.432,0.179-3.114,4.299-3.445,5.804c-0.171,0.775,0.534,1.74-0.363,2.176c-2.139-0.807,1.477-5.578,1.632-7.436
		c-1.017,0.603-2.61-1.643-1.089-2.176c0.393-0.139,1.029,0.439,1.27,0.362c1.285-0.408,1.597-1.73,2.177-3.083
		c0.76-1.773,2.594-4.217-0.726-3.989c-2.9,0.197-7.869,1.613-9.974,3.445c-1.004,0.873-2.544,3.456-0.726,4.716
		c0.299,0.206,2.083,0.727,2.176,0.725c0.251-0.008,1.954-1.342,2.357-0.182c0.366,1.056-1.048,1.771-1.27,1.814
		c0.265-0.052-1.937-0.38-2.357-0.545c-5.305-2.074-1.442-7.016,1.632-8.705c3.896-2.141,9.465-2.391,15.233-1.814
		c2.151,0.217,6.674,1.323,7.98,2.177C86.82,70.932,87.84,71.93,87.743,73.063z M79.764,75.42c1.991-0.343,7.086-0.823,7.073-2.72
		c-0.015-1.953-8.945-3.633-11.607-3.627c-0.881,0.003-1.189,2.355-1.451,3.084c-0.667,1.851-1.782,2.902-2.358,4.714
		C74.086,76.408,76.679,75.952,79.764,75.42z M84.66,78.686c2.577-2.14,4.832-4.599,6.891-7.255
		c-0.038-0.204-0.201-0.283-0.363-0.363C88.648,73.243,86.319,75.628,84.66,78.686z M75.229,82.856
		c1.558,0.11,3.173-1.137,3.809-2.538C77.324,80.014,75.588,81.202,75.229,82.856z M94.453,82.856
		c1.502,0.055,3.37-0.939,3.627-2.72C96.246,80.416,94.882,81.168,94.453,82.856z"/>
	<path d="M108.961,80.861c-0.986,1.396-3.666,0.059-3.809,1.632c-0.079,0.873,3.83,2.234,5.803,2.539
		c1.508,0.233,3.384,0.282,5.078,0.363c4.041,0.19,10.978-0.96,10.699-4.896c-0.101-1.434-1.961-3.085-3.264-3.627
		c-0.776-0.323-2.231-0.401-3.626-0.726c-2.496-0.579-4.036-0.975-6.892-1.45c-1.602-0.267-3.04-0.119-3.264-1.269
		c-0.287-1.473,2.492-2.882,3.808-3.265c2.101-0.613,5.313-0.787,6.53,0.725c0.564,0.701,0.925,1.614,0.181,1.995
		c-0.703,0.359-1.861-1.464-2.357-1.632c-1.371-0.466-7.046,0.399-6.892,1.632c0.085,0.687,4.719,1.336,6.347,1.632
		c2.538,0.461,4.508,0.647,6.348,1.451c2.611,1.14,5.409,4.042,3.082,7.254c-1.404,1.938-5.57,2.938-9.067,3.083
		c-3.669,0.152-9.641-0.387-11.968-1.814c-0.68-0.415-1.443-1.53-1.452-1.994C104.219,81.121,106.338,79.828,108.961,80.861z"/>
	<path d="M145.776,75.602c-2.504,0.255-2.219,0.338-3.446,2.177c-1.101,1.648-1.779,2.787-2.901,4.533
		c0.692,0.538,3.159-0.681,3.989-1.451c0.128-0.119,2.137-3.204,2.539-1.45c0.279,1.216-2.361,1.794-2.177,2.539
		c0.354,1.421,2.976-0.511,3.265-0.727c0.664-0.493,1.674-2.031,1.995-2.176c0.469-0.211,1.202,0.415,1.993,0
		c0.361,0.344,0.089,0.856,0,1.27c0.711,0.017,2.341-2.92,3.628-1.631c0.639,0.638-3.901,4.298-2.357,4.895
		c1.09,0.423,1.277-0.648,2.721-1.45c0.932-0.516,1.922-0.6,2.357-0.907c0.857-0.604,1.226-1.973,1.813-2.176
		c1.501-0.518,1.072,0.852,0.182,1.813c-0.263,0.285-1.411,0.563-1.088,1.27c0.335,0.733,3.147-0.733,2.901,0.544
		c-0.144,0.742-1.944,0.938-2.72,0.726c-0.638-0.174-0.853-0.676-1.27-1.088c-0.412,0.666-1.252,0.679-1.994,1.088
		c-0.767,0.422-1.492,1.264-2.177,1.27c-2.764,0.022-1.559-3.316,0-4.534c-1.952,0.058-2.5,3.053-4.352,3.809
		c-0.642-1.465,1.219-1.895,1.269-3.264c-1.685,0.553-2.024,2.448-3.264,3.445c-0.787,0.154-0.269-0.685-0.906-0.906
		c-0.602-0.21-1.357,0.338-1.814,0.181c-0.439-0.15-0.75-1.055-1.088-1.088c-1.347-0.133-1.864,2.087-3.627,1.813
		c-0.474-0.318-0.428-1.265-0.182-1.813c-1.098,0.869-4.012,3.482-3.445,0c-1.653,0.422-2.996,2.267-5.803,1.994
		c-1.074-0.104-2.224-0.813-2.177-1.813c0.025-0.533,2.162-2.612,3.265-3.264c0.567-0.335,2.66-1.12,3.082-0.543
		c0.738,1.006-2.058,2.392-1.994,2.356c-0.634,0.351-4.826,1.45-2.358,2.177c1.4,0.41,4.377-0.56,5.623-1.633
		c0.397-0.344,3.439-4.413,3.263-4.715c-0.524-0.906-4.419,0.776-4.714-0.544c-0.231-1.039,1.845-0.498,2.72-0.543
		c2.995-0.158,3.555-0.951,4.896-2.902c0.837-1.217,1.217-1.922,1.632-2.539c0.289-0.429,0.347-0.857,1.27-0.362
		c-0.865,1.976-2.521,3.16-3.445,5.077c0.313,0.64,0.521-0.173,1.089-0.181c-0.193,0.002,1.01,0.26,0.724,0.361
		c0.831-0.294,1.66-1.748,2.358-2.719c0.707-0.983,1.123-2.569,2.357-2.721c0.37,0.917-0.416,1.505-1.088,2.358
		c-0.324,0.41-1.778,1.876-1.632,2.176c0.314,0.647,4.769-0.082,6.528-0.183c4.182-0.237,8.218-0.316,11.243,0.363
		c0.724,0.534-0.587,0.598-0.725,1.271c-0.09,0.438,0.354,0.752,0.182,1.087c-0.391,0.758-1.786,1.873-2.177,0.907
		c-0.492-1.223,0.975-0.824,1.27-1.633c-1.381-2.09-7.433-1.024-11.063-0.907 M139.79,76.509c-0.607,0.396-1.642,2.505-1.995,3.083
		c-0.668,1.095-1.772,2.132-1.45,3.264c3.069-1.283,4.449-4.257,6.166-6.892c-0.04-0.141-0.006-0.357-0.182-0.362
		C141.97,76.506,140.577,75.997,139.79,76.509z M130.36,81.223c0.573-0.636,1.842-0.575,1.996-1.631
		C131.593,79.891,129.564,80.538,130.36,81.223z"/>
	<path d="M177.874,70.162c0.121,0,0.241,0,0.362,0c0.735-0.07,0.2,1.13,0.362,1.631c4.855,0.34,9.868,2.109,16.141,1.634
		c1.423-0.109,3.205-0.213,4.352-0.545c0.328-0.096,1.996-1.495,2.357-0.907c0.704,1.146-2.038,1.831-3.264,1.995
		c-5.531,0.74-12.706-0.035-17.591-1.088c-0.577-0.124-1.842-0.655-2.357-0.362c-0.592,0.334-1.528,3.755-1.813,4.533
		c-0.384,1.045-1.952,5.118-0.906,5.621c0.406,0.196,1.964,0.014,2.72-0.182c0.307-0.079,2.446-1.664,2.539,0
		c0.086,1.524-2.246,0.58-4.171,0.907c-0.554,0.095-1.136,0.714-1.451,0.726c-0.305,0.012-1.105-0.688-1.451-0.726
		c-0.742-0.078-4.388,1.561-4.715,0c1.464-1.602,4.408,0.563,5.44-1.088c0.126-0.202-0.071-1.469,0-1.995
		c0.116-0.844,0.811-2.562,1.27-3.808c0.427-1.157,1.602-3.375,1.45-3.627c-0.606-1.022-5.924,0.113-6.891,0.362
		c-0.363,0.094-1.675,1.12-2.176,0.363c-1.674-2.529,8.263-1.241,9.066-1.633C177.775,71.669,177.668,70.911,177.874,70.162z"/>
	<path d="M147.77,75.965c0.859,1.788-2.264,3.214-2.176,1.45C145.614,77.021,146.996,76.116,147.77,75.965z"/>
	<path d="M186.578,78.323c-0.162,0.563-0.605,0.845-0.726,1.45c0.486,0.104,2.261-2.427,3.083-0.906
		c0.344,0.637-1.858,2.475-1.451,3.264c0.664,1.286,2.997-1.28,3.446-1.632c1.236-0.969,1.919-1.898,3.445-1.813
		c0.327,1.101-0.992,0.994-1.451,1.269c-0.968,0.577-1.948,1.167-2.538,1.995c1.132,1.193,2.849-0.798,3.989-0.182
		c-0.401,0.66-2.135,1.626-3.809,1.451c-0.224-0.023-0.874-0.557-1.088-0.545c-0.862,0.045-2.075,1.442-2.721,0.182
		c-0.51-0.998,0.805-2.15,1.089-3.264c-2.378,0.281-2.754,2.564-4.353,3.627c-0.636-1.015,0.802-1.32,0.906-2.177
		c-1.187,0.009-1.441,1.553-2.538,1.088c0.165-1.122,1.398-1.002,2.357-1.813C185.149,79.532,185.528,77.892,186.578,78.323z"/>
</g>
<rect x="109.029" y="25.571" fill="#EC008C" width="36.064" height="32.702"/>
<path fill="#FFFFFF" d="M116.287,37.698c0.828,0,1.141,0.023,1.721,0.023h0.447c0.983,0,1.162-0.023,2.324-0.112
	c0.582-0.044,1.14-0.089,1.52-0.089c3.554,0,6.548,2.436,6.548,5.341c0,2.995-2.994,5.296-6.882,5.296
	c-0.67,0-1.051-0.022-1.899-0.157v1.721l0.044,2.078c0.022,1.229,0.156,1.431,0.916,1.632c0.269,0.067,0.56,0.134,0.894,0.179
	c0.157,0,0.357,0.022,0.604,0.044v0.335c-1.363-0.045-2.368-0.067-3.039-0.067c-0.669,0-1.676,0.022-2.995,0.067v-0.313l0.402-0.066
	c1.14-0.201,1.274-0.492,1.319-2.638l0.089-5.452l-0.067-5.118c-0.022-1.609-0.492-2.19-1.944-2.391L116.287,37.698L116.287,37.698z
	 M120.242,38.414c-0.178,2.86-0.245,4.246-0.245,5.765c0,0.805,0,1.811,0.022,3.04c0.826,0.246,1.117,0.291,1.787,0.291
	c3.039,0,5.028-1.788,5.028-4.447c0-2.726-2.235-4.894-5.073-4.894C121.226,38.168,120.958,38.212,120.242,38.414z"/>
<path fill="#FFFFFF" d="M122.903,49.901c0.066,0.201,0.133,0.335,0.156,0.447c0.492,1.34,0.536,1.429,1.028,1.831
	c0.894,0.783,2.793,1.342,4.38,1.342c2.101,0,3.531-1.208,3.531-2.994c0-0.47-0.09-0.962-0.313-1.409
	c-0.201-0.38-0.402-0.693-0.67-0.894c-0.514-0.424-0.782-0.581-2.972-1.453c-1.766-0.715-2.637-1.117-3.397-1.743
	c-0.872-0.715-1.385-1.81-1.385-2.95c0-2.481,2.348-4.492,5.23-4.492c0.715,0,1.676,0.112,2.525,0.335
	c0.492,0.112,0.737,0.179,0.938,0.179c0.402,0,0.648-0.111,0.895-0.425l0.357,0.022c-0.135,0.872-0.246,1.565-0.246,1.989
	c0,0.402,0.09,1.006,0.201,1.811l-0.38,0.022c-0.469-2.212-1.787-3.263-4.089-3.263c-2.146,0-3.777,1.386-3.777,3.196
	c0,1.341,0.827,2.301,2.592,2.995l1.72,0.67c1.632,0.626,2.481,1.118,3.106,1.721c0.805,0.805,1.297,1.922,1.297,3.04
	c0,2.614-2.234,4.38-5.543,4.38c-0.938,0-2.123-0.179-3.105-0.447c-0.446-0.112-0.782-0.179-0.895-0.179
	c-0.245,0-0.357,0.111-0.447,0.491l-0.357,0.045c-0.133-1.877-0.223-2.347-0.782-4.291L122.903,49.901z"/>
<path fill="#FFFFFF" d="M133.539,53.676c0.156-0.022,0.313-0.044,0.446-0.066c0.268-0.022,0.491-0.111,0.692-0.201
	c0.156-0.089,0.313-0.269,0.38-0.447c0.201-0.514,0.224-0.961,0.224-4.224c0-2.123-0.224-2.682-0.983-2.682
	c-0.135,0-0.313,0-0.491,0.022l-0.045-0.224c1.497-0.604,1.831-0.804,3.15-1.721h0.268c-0.111,1.14-0.201,2.011-0.245,2.57
	c-0.067,1.207-0.156,2.838-0.156,3.33v0.313l0.067,1.832c0.044,1.029,0.29,1.32,1.362,1.431l0.469,0.044l0.023,0.358
	c-1.118-0.067-1.944-0.09-2.503-0.09c-0.581,0-1.475,0.022-2.659,0.09L133.539,53.676L133.539,53.676z M136.537,38.055
	c0.514,0,0.938,0.447,0.938,0.983c0,0.492-0.424,0.917-0.938,0.917s-0.939-0.425-0.939-0.917
	C135.598,38.502,136.023,38.055,136.537,38.055z"/>
</svg>
